<mxfile host="app.diagrams.net" modified="2024-07-05T20:04:46.104Z" agent="Mozilla/5.0 (Windows NT 10.0; Win64; x64) AppleWebKit/537.36 (KHTML, like Gecko) Chrome/126.0.0.0 Safari/537.36" etag="nzrj1_jagMaU9cw_zUeH" version="24.6.4" type="github">
  <diagram name="Page-1" id="n_ZQPiQB3zPifFi_V-v0">
    <mxGraphModel dx="1849" dy="1788" grid="0" gridSize="10" guides="1" tooltips="1" connect="1" arrows="1" fold="1" page="0" pageScale="1" pageWidth="850" pageHeight="1100" math="0" shadow="0">
      <root>
        <mxCell id="0" />
        <mxCell id="1" parent="0" />
        <mxCell id="WQ1JmOhUHfApov26jlxl-120" style="edgeStyle=none;curved=1;rounded=0;orthogonalLoop=1;jettySize=auto;html=1;entryX=0;entryY=0.5;entryDx=0;entryDy=0;fontSize=12;startSize=8;endSize=8;" edge="1" parent="1" source="WQ1JmOhUHfApov26jlxl-17" target="WQ1JmOhUHfApov26jlxl-34">
          <mxGeometry relative="1" as="geometry">
            <Array as="points">
              <mxPoint x="-193" y="-654" />
            </Array>
          </mxGeometry>
        </mxCell>
        <mxCell id="WQ1JmOhUHfApov26jlxl-121" style="edgeStyle=none;curved=1;rounded=0;orthogonalLoop=1;jettySize=auto;html=1;exitX=0.25;exitY=0;exitDx=0;exitDy=0;fontSize=12;startSize=8;endSize=8;" edge="1" parent="1" source="WQ1JmOhUHfApov26jlxl-17" target="WQ1JmOhUHfApov26jlxl-21">
          <mxGeometry relative="1" as="geometry">
            <Array as="points">
              <mxPoint x="-251" y="-664" />
            </Array>
          </mxGeometry>
        </mxCell>
        <mxCell id="WQ1JmOhUHfApov26jlxl-122" style="edgeStyle=none;curved=1;rounded=0;orthogonalLoop=1;jettySize=auto;html=1;exitX=0;exitY=0;exitDx=0;exitDy=0;fontSize=12;startSize=8;endSize=8;" edge="1" parent="1" source="WQ1JmOhUHfApov26jlxl-17" target="WQ1JmOhUHfApov26jlxl-19">
          <mxGeometry relative="1" as="geometry" />
        </mxCell>
        <mxCell id="WQ1JmOhUHfApov26jlxl-123" style="edgeStyle=none;curved=1;rounded=0;orthogonalLoop=1;jettySize=auto;html=1;exitX=0;exitY=0.5;exitDx=0;exitDy=0;entryX=1;entryY=0.5;entryDx=0;entryDy=0;fontSize=12;startSize=8;endSize=8;" edge="1" parent="1" source="WQ1JmOhUHfApov26jlxl-17" target="WQ1JmOhUHfApov26jlxl-23">
          <mxGeometry relative="1" as="geometry" />
        </mxCell>
        <mxCell id="WQ1JmOhUHfApov26jlxl-124" style="edgeStyle=none;curved=1;rounded=0;orthogonalLoop=1;jettySize=auto;html=1;exitX=0.25;exitY=1;exitDx=0;exitDy=0;entryX=1;entryY=0.5;entryDx=0;entryDy=0;fontSize=12;startSize=8;endSize=8;" edge="1" parent="1" source="WQ1JmOhUHfApov26jlxl-17" target="WQ1JmOhUHfApov26jlxl-25">
          <mxGeometry relative="1" as="geometry">
            <Array as="points">
              <mxPoint x="-265" y="-544" />
            </Array>
          </mxGeometry>
        </mxCell>
        <mxCell id="WQ1JmOhUHfApov26jlxl-125" style="edgeStyle=none;curved=1;rounded=0;orthogonalLoop=1;jettySize=auto;html=1;fontSize=12;startSize=8;endSize=8;" edge="1" parent="1" source="WQ1JmOhUHfApov26jlxl-17" target="WQ1JmOhUHfApov26jlxl-29">
          <mxGeometry relative="1" as="geometry">
            <Array as="points">
              <mxPoint x="-230" y="-541" />
            </Array>
          </mxGeometry>
        </mxCell>
        <mxCell id="WQ1JmOhUHfApov26jlxl-17" value="Student" style="whiteSpace=wrap;html=1;align=center;" vertex="1" parent="1">
          <mxGeometry x="-282" y="-629" width="125" height="46" as="geometry" />
        </mxCell>
        <mxCell id="WQ1JmOhUHfApov26jlxl-19" value="ID" style="ellipse;whiteSpace=wrap;html=1;align=center;fontStyle=4;" vertex="1" parent="1">
          <mxGeometry x="-349" y="-693" width="67" height="35" as="geometry" />
        </mxCell>
        <mxCell id="WQ1JmOhUHfApov26jlxl-21" value="DOB" style="ellipse;whiteSpace=wrap;html=1;align=center;" vertex="1" parent="1">
          <mxGeometry x="-258" y="-714" width="77" height="34" as="geometry" />
        </mxCell>
        <mxCell id="WQ1JmOhUHfApov26jlxl-23" value="Semester Done" style="ellipse;whiteSpace=wrap;html=1;align=center;" vertex="1" parent="1">
          <mxGeometry x="-418" y="-626" width="100" height="40" as="geometry" />
        </mxCell>
        <mxCell id="WQ1JmOhUHfApov26jlxl-25" value="Phone" style="ellipse;whiteSpace=wrap;html=1;align=center;" vertex="1" parent="1">
          <mxGeometry x="-404" y="-566" width="100" height="40" as="geometry" />
        </mxCell>
        <mxCell id="WQ1JmOhUHfApov26jlxl-29" value="Contact Profile Link" style="ellipse;whiteSpace=wrap;html=1;align=center;fontStyle=4;" vertex="1" parent="1">
          <mxGeometry x="-331" y="-518.5" width="100" height="40" as="geometry" />
        </mxCell>
        <mxCell id="WQ1JmOhUHfApov26jlxl-118" style="edgeStyle=none;curved=1;rounded=0;orthogonalLoop=1;jettySize=auto;html=1;fontSize=12;startSize=8;endSize=8;" edge="1" parent="1" source="WQ1JmOhUHfApov26jlxl-32" target="WQ1JmOhUHfApov26jlxl-92">
          <mxGeometry relative="1" as="geometry">
            <Array as="points">
              <mxPoint x="220" y="-593" />
            </Array>
          </mxGeometry>
        </mxCell>
        <mxCell id="WQ1JmOhUHfApov26jlxl-132" style="edgeStyle=none;curved=1;rounded=0;orthogonalLoop=1;jettySize=auto;html=1;fontSize=12;startSize=8;endSize=8;" edge="1" parent="1" source="WQ1JmOhUHfApov26jlxl-32" target="WQ1JmOhUHfApov26jlxl-108">
          <mxGeometry relative="1" as="geometry" />
        </mxCell>
        <mxCell id="WQ1JmOhUHfApov26jlxl-133" style="edgeStyle=none;curved=1;rounded=0;orthogonalLoop=1;jettySize=auto;html=1;exitX=1;exitY=0.75;exitDx=0;exitDy=0;entryX=0;entryY=0.5;entryDx=0;entryDy=0;fontSize=12;startSize=8;endSize=8;" edge="1" parent="1" source="WQ1JmOhUHfApov26jlxl-32" target="WQ1JmOhUHfApov26jlxl-130">
          <mxGeometry relative="1" as="geometry" />
        </mxCell>
        <mxCell id="WQ1JmOhUHfApov26jlxl-32" value="Post" style="shape=ext;margin=3;double=1;whiteSpace=wrap;html=1;align=center;" vertex="1" parent="1">
          <mxGeometry x="164" y="-660" width="102" height="42" as="geometry" />
        </mxCell>
        <mxCell id="WQ1JmOhUHfApov26jlxl-33" value="Preferred&lt;div&gt;Gender&lt;/div&gt;" style="ellipse;whiteSpace=wrap;html=1;align=center;" vertex="1" parent="1">
          <mxGeometry x="144" y="-741" width="100" height="40" as="geometry" />
        </mxCell>
        <mxCell id="WQ1JmOhUHfApov26jlxl-34" value="Gender" style="ellipse;whiteSpace=wrap;html=1;align=center;" vertex="1" parent="1">
          <mxGeometry x="-172" y="-683" width="79" height="36" as="geometry" />
        </mxCell>
        <mxCell id="WQ1JmOhUHfApov26jlxl-126" style="edgeStyle=none;curved=1;rounded=0;orthogonalLoop=1;jettySize=auto;html=1;entryX=0.5;entryY=0;entryDx=0;entryDy=0;fontSize=12;startSize=8;endSize=8;" edge="1" parent="1" source="WQ1JmOhUHfApov26jlxl-37" target="WQ1JmOhUHfApov26jlxl-80">
          <mxGeometry relative="1" as="geometry">
            <Array as="points">
              <mxPoint x="-241" y="-326" />
            </Array>
          </mxGeometry>
        </mxCell>
        <mxCell id="WQ1JmOhUHfApov26jlxl-127" style="edgeStyle=none;curved=1;rounded=0;orthogonalLoop=1;jettySize=auto;html=1;entryX=0.5;entryY=0;entryDx=0;entryDy=0;fontSize=12;startSize=8;endSize=8;" edge="1" parent="1" source="WQ1JmOhUHfApov26jlxl-37" target="WQ1JmOhUHfApov26jlxl-78">
          <mxGeometry relative="1" as="geometry">
            <Array as="points">
              <mxPoint x="-171" y="-306" />
            </Array>
          </mxGeometry>
        </mxCell>
        <mxCell id="WQ1JmOhUHfApov26jlxl-129" style="edgeStyle=none;curved=1;rounded=0;orthogonalLoop=1;jettySize=auto;html=1;entryX=0.5;entryY=0;entryDx=0;entryDy=0;fontSize=12;startSize=8;endSize=8;" edge="1" parent="1" source="WQ1JmOhUHfApov26jlxl-37" target="WQ1JmOhUHfApov26jlxl-86">
          <mxGeometry relative="1" as="geometry">
            <Array as="points">
              <mxPoint x="-96" y="-299" />
            </Array>
          </mxGeometry>
        </mxCell>
        <mxCell id="WQ1JmOhUHfApov26jlxl-37" value="Area" style="whiteSpace=wrap;html=1;align=center;" vertex="1" parent="1">
          <mxGeometry x="-169" y="-376" width="105" height="42" as="geometry" />
        </mxCell>
        <mxCell id="WQ1JmOhUHfApov26jlxl-66" value="" style="endArrow=none;html=1;rounded=0;fontSize=12;startSize=8;endSize=8;curved=1;exitX=1;exitY=0.5;exitDx=0;exitDy=0;entryX=0;entryY=0.5;entryDx=0;entryDy=0;" edge="1" parent="1" source="WQ1JmOhUHfApov26jlxl-17" target="WQ1JmOhUHfApov26jlxl-71">
          <mxGeometry relative="1" as="geometry">
            <mxPoint x="-36" y="-529" as="sourcePoint" />
            <mxPoint x="-38" y="-613" as="targetPoint" />
          </mxGeometry>
        </mxCell>
        <mxCell id="WQ1JmOhUHfApov26jlxl-67" value="1" style="resizable=0;html=1;whiteSpace=wrap;align=right;verticalAlign=bottom;" connectable="0" vertex="1" parent="WQ1JmOhUHfApov26jlxl-66">
          <mxGeometry x="1" relative="1" as="geometry" />
        </mxCell>
        <mxCell id="WQ1JmOhUHfApov26jlxl-68" value="" style="endArrow=none;html=1;rounded=0;fontSize=12;startSize=8;endSize=8;curved=1;entryX=0;entryY=0.5;entryDx=0;entryDy=0;exitX=1;exitY=0.5;exitDx=0;exitDy=0;" edge="1" parent="1" source="WQ1JmOhUHfApov26jlxl-71" target="WQ1JmOhUHfApov26jlxl-32">
          <mxGeometry relative="1" as="geometry">
            <mxPoint x="82" y="-613" as="sourcePoint" />
            <mxPoint x="124" y="-529" as="targetPoint" />
          </mxGeometry>
        </mxCell>
        <mxCell id="WQ1JmOhUHfApov26jlxl-69" value="N" style="resizable=0;html=1;whiteSpace=wrap;align=right;verticalAlign=bottom;" connectable="0" vertex="1" parent="WQ1JmOhUHfApov26jlxl-68">
          <mxGeometry x="1" relative="1" as="geometry" />
        </mxCell>
        <mxCell id="WQ1JmOhUHfApov26jlxl-147" style="edgeStyle=none;curved=1;rounded=0;orthogonalLoop=1;jettySize=auto;html=1;exitX=0.5;exitY=0;exitDx=0;exitDy=0;fontSize=12;startSize=8;endSize=8;" edge="1" parent="1" source="WQ1JmOhUHfApov26jlxl-71" target="WQ1JmOhUHfApov26jlxl-145">
          <mxGeometry relative="1" as="geometry" />
        </mxCell>
        <mxCell id="WQ1JmOhUHfApov26jlxl-71" value="Create" style="shape=rhombus;double=1;perimeter=rhombusPerimeter;whiteSpace=wrap;html=1;align=center;" vertex="1" parent="1">
          <mxGeometry x="-34" y="-651" width="93" height="55" as="geometry" />
        </mxCell>
        <mxCell id="WQ1JmOhUHfApov26jlxl-72" value="Lives" style="shape=rhombus;perimeter=rhombusPerimeter;whiteSpace=wrap;html=1;align=center;" vertex="1" parent="1">
          <mxGeometry x="-192" y="-486" width="84" height="46" as="geometry" />
        </mxCell>
        <mxCell id="WQ1JmOhUHfApov26jlxl-74" value="" style="endArrow=none;html=1;rounded=0;fontSize=12;startSize=8;endSize=8;curved=1;exitX=1;exitY=1;exitDx=0;exitDy=0;entryX=0.5;entryY=0;entryDx=0;entryDy=0;" edge="1" parent="1" source="WQ1JmOhUHfApov26jlxl-17" target="WQ1JmOhUHfApov26jlxl-72">
          <mxGeometry relative="1" as="geometry">
            <mxPoint x="-168" y="-568" as="sourcePoint" />
            <mxPoint x="124" y="-530" as="targetPoint" />
            <Array as="points">
              <mxPoint x="-129" y="-528" />
            </Array>
          </mxGeometry>
        </mxCell>
        <mxCell id="WQ1JmOhUHfApov26jlxl-75" value="N" style="resizable=0;html=1;whiteSpace=wrap;align=right;verticalAlign=bottom;" connectable="0" vertex="1" parent="WQ1JmOhUHfApov26jlxl-74">
          <mxGeometry x="1" relative="1" as="geometry" />
        </mxCell>
        <mxCell id="WQ1JmOhUHfApov26jlxl-76" value="" style="endArrow=none;html=1;rounded=0;fontSize=12;startSize=8;endSize=8;curved=1;entryX=0.5;entryY=0;entryDx=0;entryDy=0;exitX=0.5;exitY=1;exitDx=0;exitDy=0;" edge="1" parent="1" source="WQ1JmOhUHfApov26jlxl-72" target="WQ1JmOhUHfApov26jlxl-37">
          <mxGeometry relative="1" as="geometry">
            <mxPoint x="-36" y="-530" as="sourcePoint" />
            <mxPoint x="124" y="-530" as="targetPoint" />
            <Array as="points">
              <mxPoint x="-148" y="-418" />
              <mxPoint x="-148" y="-396" />
              <mxPoint x="-139" y="-382" />
            </Array>
          </mxGeometry>
        </mxCell>
        <mxCell id="WQ1JmOhUHfApov26jlxl-77" value="1" style="resizable=0;html=1;whiteSpace=wrap;align=right;verticalAlign=bottom;" connectable="0" vertex="1" parent="WQ1JmOhUHfApov26jlxl-76">
          <mxGeometry x="1" relative="1" as="geometry" />
        </mxCell>
        <mxCell id="WQ1JmOhUHfApov26jlxl-78" value="ZIP" style="ellipse;whiteSpace=wrap;html=1;align=center;fontStyle=4;" vertex="1" parent="1">
          <mxGeometry x="-225" y="-277" width="70" height="21" as="geometry" />
        </mxCell>
        <mxCell id="WQ1JmOhUHfApov26jlxl-80" value="Name" style="ellipse;whiteSpace=wrap;html=1;align=center;" vertex="1" parent="1">
          <mxGeometry x="-304" y="-304" width="85" height="33" as="geometry" />
        </mxCell>
        <mxCell id="WQ1JmOhUHfApov26jlxl-86" value="Street" style="ellipse;whiteSpace=wrap;html=1;align=center;" vertex="1" parent="1">
          <mxGeometry x="-147" y="-271" width="87" height="37" as="geometry" />
        </mxCell>
        <mxCell id="WQ1JmOhUHfApov26jlxl-116" style="edgeStyle=none;curved=1;rounded=0;orthogonalLoop=1;jettySize=auto;html=1;exitX=0.5;exitY=1;exitDx=0;exitDy=0;entryX=0.5;entryY=0;entryDx=0;entryDy=0;fontSize=12;startSize=8;endSize=8;" edge="1" parent="1" source="WQ1JmOhUHfApov26jlxl-92" target="WQ1JmOhUHfApov26jlxl-96">
          <mxGeometry relative="1" as="geometry" />
        </mxCell>
        <mxCell id="WQ1JmOhUHfApov26jlxl-117" style="edgeStyle=none;curved=1;rounded=0;orthogonalLoop=1;jettySize=auto;html=1;exitX=0;exitY=1;exitDx=0;exitDy=0;entryX=0.5;entryY=0;entryDx=0;entryDy=0;fontSize=12;startSize=8;endSize=8;" edge="1" parent="1" source="WQ1JmOhUHfApov26jlxl-92" target="WQ1JmOhUHfApov26jlxl-94">
          <mxGeometry relative="1" as="geometry" />
        </mxCell>
        <mxCell id="WQ1JmOhUHfApov26jlxl-144" style="edgeStyle=none;curved=1;rounded=0;orthogonalLoop=1;jettySize=auto;html=1;exitX=1;exitY=1;exitDx=0;exitDy=0;entryX=0.5;entryY=0;entryDx=0;entryDy=0;fontSize=12;startSize=8;endSize=8;" edge="1" parent="1" source="WQ1JmOhUHfApov26jlxl-92" target="WQ1JmOhUHfApov26jlxl-141">
          <mxGeometry relative="1" as="geometry" />
        </mxCell>
        <mxCell id="WQ1JmOhUHfApov26jlxl-92" value="Vehicle" style="ellipse;whiteSpace=wrap;html=1;align=center;" vertex="1" parent="1">
          <mxGeometry x="215" y="-577" width="75" height="38" as="geometry" />
        </mxCell>
        <mxCell id="WQ1JmOhUHfApov26jlxl-94" value="CNG" style="ellipse;whiteSpace=wrap;html=1;align=center;" vertex="1" parent="1">
          <mxGeometry x="174" y="-514" width="46" height="19" as="geometry" />
        </mxCell>
        <mxCell id="WQ1JmOhUHfApov26jlxl-96" value="Privt.Car" style="ellipse;whiteSpace=wrap;html=1;align=center;" vertex="1" parent="1">
          <mxGeometry x="210" y="-492" width="65" height="29" as="geometry" />
        </mxCell>
        <mxCell id="WQ1JmOhUHfApov26jlxl-101" value="Mention" style="shape=rhombus;perimeter=rhombusPerimeter;whiteSpace=wrap;html=1;align=center;" vertex="1" parent="1">
          <mxGeometry x="67" y="-502" width="71" height="50" as="geometry" />
        </mxCell>
        <mxCell id="WQ1JmOhUHfApov26jlxl-103" value="" style="endArrow=none;html=1;rounded=0;fontSize=12;startSize=8;endSize=8;curved=1;entryX=1;entryY=0;entryDx=0;entryDy=0;exitX=0.5;exitY=1;exitDx=0;exitDy=0;" edge="1" parent="1" source="WQ1JmOhUHfApov26jlxl-101" target="WQ1JmOhUHfApov26jlxl-37">
          <mxGeometry relative="1" as="geometry">
            <mxPoint x="-36" y="-532" as="sourcePoint" />
            <mxPoint x="124" y="-532" as="targetPoint" />
          </mxGeometry>
        </mxCell>
        <mxCell id="WQ1JmOhUHfApov26jlxl-104" value="1" style="resizable=0;html=1;whiteSpace=wrap;align=right;verticalAlign=bottom;" connectable="0" vertex="1" parent="WQ1JmOhUHfApov26jlxl-103">
          <mxGeometry x="1" relative="1" as="geometry" />
        </mxCell>
        <mxCell id="WQ1JmOhUHfApov26jlxl-105" value="" style="endArrow=none;html=1;rounded=0;fontSize=12;startSize=8;endSize=8;curved=1;exitX=0.5;exitY=0;exitDx=0;exitDy=0;entryX=0;entryY=1;entryDx=0;entryDy=0;" edge="1" parent="1" source="WQ1JmOhUHfApov26jlxl-101" target="WQ1JmOhUHfApov26jlxl-32">
          <mxGeometry relative="1" as="geometry">
            <mxPoint x="-36" y="-532" as="sourcePoint" />
            <mxPoint x="180" y="-622" as="targetPoint" />
          </mxGeometry>
        </mxCell>
        <mxCell id="WQ1JmOhUHfApov26jlxl-106" value="N" style="resizable=0;html=1;whiteSpace=wrap;align=right;verticalAlign=bottom;" connectable="0" vertex="1" parent="WQ1JmOhUHfApov26jlxl-105">
          <mxGeometry x="1" relative="1" as="geometry" />
        </mxCell>
        <mxCell id="WQ1JmOhUHfApov26jlxl-112" style="edgeStyle=none;curved=1;rounded=0;orthogonalLoop=1;jettySize=auto;html=1;exitX=0;exitY=0;exitDx=0;exitDy=0;fontSize=12;startSize=8;endSize=8;" edge="1" parent="1" source="WQ1JmOhUHfApov26jlxl-108" target="WQ1JmOhUHfApov26jlxl-110">
          <mxGeometry relative="1" as="geometry" />
        </mxCell>
        <mxCell id="WQ1JmOhUHfApov26jlxl-115" style="edgeStyle=none;curved=1;rounded=0;orthogonalLoop=1;jettySize=auto;html=1;exitX=0.5;exitY=0;exitDx=0;exitDy=0;fontSize=12;startSize=8;endSize=8;" edge="1" parent="1" source="WQ1JmOhUHfApov26jlxl-108" target="WQ1JmOhUHfApov26jlxl-113">
          <mxGeometry relative="1" as="geometry" />
        </mxCell>
        <mxCell id="WQ1JmOhUHfApov26jlxl-108" value="Day Wise&lt;div&gt;Preferred Time&lt;/div&gt;" style="ellipse;whiteSpace=wrap;html=1;align=center;" vertex="1" parent="1">
          <mxGeometry x="306" y="-695.5" width="100" height="40" as="geometry" />
        </mxCell>
        <mxCell id="WQ1JmOhUHfApov26jlxl-110" value="Day of the week" style="ellipse;whiteSpace=wrap;html=1;align=center;" vertex="1" parent="1">
          <mxGeometry x="294" y="-775" width="69" height="37" as="geometry" />
        </mxCell>
        <mxCell id="WQ1JmOhUHfApov26jlxl-113" value="Time" style="ellipse;whiteSpace=wrap;html=1;align=center;" vertex="1" parent="1">
          <mxGeometry x="363" y="-749" width="67" height="35" as="geometry" />
        </mxCell>
        <mxCell id="WQ1JmOhUHfApov26jlxl-119" style="edgeStyle=none;curved=1;rounded=0;orthogonalLoop=1;jettySize=auto;html=1;entryX=0.569;entryY=0.962;entryDx=0;entryDy=0;entryPerimeter=0;fontSize=12;startSize=8;endSize=8;" edge="1" parent="1" source="WQ1JmOhUHfApov26jlxl-32" target="WQ1JmOhUHfApov26jlxl-33">
          <mxGeometry relative="1" as="geometry">
            <Array as="points">
              <mxPoint x="212" y="-681" />
            </Array>
          </mxGeometry>
        </mxCell>
        <mxCell id="WQ1JmOhUHfApov26jlxl-130" value="Max People" style="ellipse;whiteSpace=wrap;html=1;align=center;" vertex="1" parent="1">
          <mxGeometry x="316" y="-623" width="75" height="35" as="geometry" />
        </mxCell>
        <mxCell id="WQ1JmOhUHfApov26jlxl-134" value="Partners" style="shape=rhombus;perimeter=rhombusPerimeter;whiteSpace=wrap;html=1;align=center;" vertex="1" parent="1">
          <mxGeometry x="-42" y="-550" width="83" height="48" as="geometry" />
        </mxCell>
        <mxCell id="WQ1JmOhUHfApov26jlxl-138" value="" style="shape=link;html=1;rounded=0;fontSize=12;startSize=8;endSize=8;curved=1;exitX=1;exitY=0.75;exitDx=0;exitDy=0;entryX=0;entryY=0.5;entryDx=0;entryDy=0;width=3.333333333333334;" edge="1" parent="1" source="WQ1JmOhUHfApov26jlxl-17" target="WQ1JmOhUHfApov26jlxl-134">
          <mxGeometry relative="1" as="geometry">
            <mxPoint x="-35" y="-532" as="sourcePoint" />
            <mxPoint x="125" y="-532" as="targetPoint" />
            <Array as="points">
              <mxPoint x="-127" y="-560" />
              <mxPoint x="-103" y="-543" />
              <mxPoint x="-75" y="-530" />
              <mxPoint x="-58" y="-526" />
            </Array>
          </mxGeometry>
        </mxCell>
        <mxCell id="WQ1JmOhUHfApov26jlxl-139" value="M" style="resizable=0;html=1;whiteSpace=wrap;align=left;verticalAlign=bottom;" connectable="0" vertex="1" parent="WQ1JmOhUHfApov26jlxl-138">
          <mxGeometry x="-1" relative="1" as="geometry" />
        </mxCell>
        <mxCell id="WQ1JmOhUHfApov26jlxl-140" value="N" style="resizable=0;html=1;whiteSpace=wrap;align=right;verticalAlign=bottom;" connectable="0" vertex="1" parent="WQ1JmOhUHfApov26jlxl-138">
          <mxGeometry x="1" relative="1" as="geometry" />
        </mxCell>
        <mxCell id="WQ1JmOhUHfApov26jlxl-141" value="Bus" style="ellipse;whiteSpace=wrap;html=1;align=center;" vertex="1" parent="1">
          <mxGeometry x="270" y="-514" width="56" height="25" as="geometry" />
        </mxCell>
        <mxCell id="WQ1JmOhUHfApov26jlxl-143" style="edgeStyle=none;curved=1;rounded=0;orthogonalLoop=1;jettySize=auto;html=1;entryX=0.5;entryY=0;entryDx=0;entryDy=0;fontSize=12;startSize=8;endSize=8;" edge="1" parent="1" source="WQ1JmOhUHfApov26jlxl-141" target="WQ1JmOhUHfApov26jlxl-141">
          <mxGeometry relative="1" as="geometry" />
        </mxCell>
        <mxCell id="WQ1JmOhUHfApov26jlxl-145" value="Connect" style="ellipse;whiteSpace=wrap;html=1;align=center;" vertex="1" parent="1">
          <mxGeometry x="-5" y="-716" width="68" height="31" as="geometry" />
        </mxCell>
        <mxCell id="WQ1JmOhUHfApov26jlxl-146" style="edgeStyle=none;curved=1;rounded=0;orthogonalLoop=1;jettySize=auto;html=1;entryX=0.5;entryY=1;entryDx=0;entryDy=0;fontSize=12;startSize=8;endSize=8;" edge="1" parent="1" source="WQ1JmOhUHfApov26jlxl-145" target="WQ1JmOhUHfApov26jlxl-145">
          <mxGeometry relative="1" as="geometry" />
        </mxCell>
        <mxCell id="WQ1JmOhUHfApov26jlxl-148" value="&lt;i style=&quot;&quot;&gt;&lt;font style=&quot;font-size: 23px;&quot;&gt;BRACu TravelBuddy&lt;/font&gt;&lt;/i&gt;" style="text;html=1;fontSize=24;fontStyle=1;verticalAlign=middle;align=center;fillColor=#f5f5f5;fontColor=#333333;strokeColor=#666666;" vertex="1" parent="1">
          <mxGeometry x="-108" y="-840" width="258" height="40" as="geometry" />
        </mxCell>
      </root>
    </mxGraphModel>
  </diagram>
</mxfile>
